<?xml version="1.0" encoding="UTF-8"?>
<svg version="1.1" xmlns="http://www.w3.org/2000/svg" width="500" height="500">
<path d="M0 0 C165 0 330 0 500 0 C500 165 500 330 500 500 C335 500 170 500 0 500 C0 335 0 170 0 0 Z " fill="#000000" transform="translate(0,0)"/>
<path d="M0 0 C1.90043564 -0.00642769 1.90043564 -0.00642769 3.83926392 -0.01298523 C6.50691807 -0.01870285 9.17418202 -0.02019487 11.84179688 -0.01489258 C15.22596878 -0.00910593 18.60959194 -0.02603456 21.99367332 -0.04923725 C25.26661019 -0.06768673 28.53952064 -0.06378586 31.8125 -0.0625 C33.60837051 -0.07631462 33.60837051 -0.07631462 35.44052124 -0.09040833 C45.34640001 -0.03666317 54.23773629 1.94845688 63.5390625 5.30078125 C64.56644531 5.6565625 65.59382812 6.01234375 66.65234375 6.37890625 C72.73252185 8.60607771 77.96095326 10.9800613 83.21484375 14.7578125 C86.85716474 17.17582392 90.78894837 18.95747384 94.7421875 20.80859375 C97.68577815 22.37905692 99.97121709 24.17292117 102.5390625 26.30078125 C103.81631424 27.25453542 105.09937775 28.20053343 106.38671875 29.140625 C107.07443359 29.64658203 107.76214844 30.15253906 108.47070312 30.67382812 C109.89195752 31.71729721 111.31645345 32.75636539 112.74414062 33.79101562 C116.63444927 36.66582587 119.58751742 39.42809463 122.5390625 43.30078125 C123.95948884 44.47327863 125.41885167 45.60027872 126.9140625 46.67578125 C130.96004116 49.73868741 134.80466722 52.96864128 137.5390625 57.30078125 C137.5390625 58.29078125 137.5390625 59.28078125 137.5390625 60.30078125 C138.14645264 60.55931885 138.75384277 60.81785645 139.37963867 61.08422852 C151.90319899 68.13961586 157.50529289 92.11708435 161.19140625 104.98046875 C161.73022908 106.93969246 162.26289549 108.90062084 162.7890625 110.86328125 C163.14061401 112.17171997 163.14061401 112.17171997 163.49926758 113.5065918 C167.50067091 129.22649317 168.99308537 144.21457991 168.8203125 160.40258789 C168.78847539 163.4189052 168.7792594 166.43470133 168.7734375 169.45117188 C168.76429113 171.37110022 168.75392306 173.29102323 168.7421875 175.2109375 C168.73793762 176.11175552 168.73368774 177.01257355 168.72930908 177.94068909 C168.65640936 184.18343439 168.65640936 184.18343439 167.5390625 185.30078125 C166.87990747 189.08998104 166.29162151 192.8825755 165.73242188 196.6875 C165.60802734 197.48542969 165.48363281 198.28335938 165.35546875 199.10546875 C165.24662354 199.83749512 165.13777832 200.56952148 165.02563477 201.32373047 C164.5390625 203.30078125 164.5390625 203.30078125 162.5390625 206.30078125 C162.07247691 208.22686932 161.66340861 210.16716143 161.2890625 212.11328125 C158.52955213 224.45556894 153.37380774 234.45400026 145.5390625 244.30078125 C144.93835938 245.09226562 144.33765625 245.88375 143.71875 246.69921875 C140.83153598 250.49273314 137.8485264 254.2073181 134.7890625 257.86328125 C134.23734375 258.52457031 133.685625 259.18585938 133.1171875 259.8671875 C131.5390625 261.30078125 131.5390625 261.30078125 128.5390625 261.30078125 C128.51714844 261.98527344 128.49523437 262.66976563 128.47265625 263.375 C127.06274966 267.79349387 124.00706639 270.08388558 120.6015625 273.11328125 C119.91787598 273.73348145 119.23418945 274.35368164 118.52978516 274.99267578 C103.04701312 288.93628885 86.44667057 299.68006239 66.48046875 306.0078125 C61.68896125 307.54095083 57.01028449 309.36728059 52.34472656 311.24609375 C43.89169301 314.53659603 35.0869185 315.62044306 26.1015625 316.42578125 C25.17923828 316.50997314 24.25691406 316.59416504 23.30664062 316.6809082 C17.03026507 317.22815049 10.83928905 317.61286678 4.5390625 317.30078125 C3.52070313 317.25953125 2.50234375 317.21828125 1.453125 317.17578125 C-5.24408622 316.79399249 -11.4918276 315.75016626 -17.9921875 314.1171875 C-21.20956682 313.35994394 -24.40778831 312.77164184 -27.66430664 312.22216797 C-33.32951933 311.2581834 -38.49038596 310.30187269 -43.48535156 307.31420898 C-45.64075304 306.20854023 -47.65793562 305.65438819 -50.00390625 305.05859375 C-56.01595104 303.30480631 -61.06803113 300.41158349 -66.3984375 297.17578125 C-67.84367798 296.30953125 -67.84367798 296.30953125 -69.31811523 295.42578125 C-77.2623025 290.5854539 -84.37997005 285.39448183 -90.96484375 278.7890625 C-93.18377605 276.57707521 -95.4588859 274.52636701 -97.8359375 272.48828125 C-101.40517932 269.33721793 -104.58092323 266.06514855 -107.64453125 262.42578125 C-109.69964051 260.02152439 -111.86222011 257.73492838 -114.0234375 255.42578125 C-120.2837883 248.4463361 -124.37448882 240.60693714 -128.5859375 232.30078125 C-128.91086182 231.66060059 -129.23578613 231.02041992 -129.57055664 230.36083984 C-133.83827974 221.76465859 -137.01979888 212.97773804 -139.5859375 203.73828125 C-139.83730469 202.85720703 -140.08867187 201.97613281 -140.34765625 201.06835938 C-141.07641726 198.48335632 -141.79490443 195.9027717 -142.4609375 193.30078125 C-142.6332338 192.68054581 -142.80553009 192.06031036 -142.98304749 191.42127991 C-144.66559151 184.82594117 -144.73457397 178.45901538 -144.69140625 171.6796875 C-144.69094803 170.49857895 -144.69048981 169.3174704 -144.6900177 168.10057068 C-144.68701158 165.62050361 -144.67917486 163.14043815 -144.66674805 160.66040039 C-144.64837831 156.85100688 -144.64623938 153.04185526 -144.64648438 149.23242188 C-144.64157282 146.8190083 -144.63574609 144.40559638 -144.62890625 141.9921875 C-144.62779343 140.84955948 -144.6266806 139.70693146 -144.62553406 138.52967834 C-144.61915421 137.47775803 -144.61277435 136.42583771 -144.60620117 135.34204102 C-144.60238937 134.41432388 -144.59857758 133.48660675 -144.59465027 132.53077698 C-144.4609375 130.30078125 -144.4609375 130.30078125 -143.4609375 128.30078125 C-143.43040808 125.79736915 -143.52774868 123.31024162 -143.62109375 120.80859375 C-143.4472588 118.08659278 -142.76153758 116.66377628 -141.4609375 114.30078125 C-141.05997825 112.93312571 -140.68742503 111.55697874 -140.3359375 110.17578125 C-136.2221042 96.20931721 -129.19632511 83.53863684 -121.4609375 71.30078125 C-120.92984375 70.40746094 -120.39875 69.51414062 -119.8515625 68.59375 C-118.77958249 66.79345416 -117.63136276 65.03868543 -116.4609375 63.30078125 C-115.8009375 63.30078125 -115.1409375 63.30078125 -114.4609375 63.30078125 C-114.3990625 62.74390625 -114.3371875 62.18703125 -114.2734375 61.61328125 C-113.12985844 58.35847932 -110.90042448 56.72632831 -108.4609375 54.30078125 C-106.14611269 51.40822614 -103.8903183 48.4776292 -101.64453125 45.53125 C-100.92394531 44.79519531 -100.20335937 44.05914062 -99.4609375 43.30078125 C-98.1409375 43.30078125 -96.8209375 43.30078125 -95.4609375 43.30078125 C-95.21988281 42.71554688 -94.97882813 42.1303125 -94.73046875 41.52734375 C-93.21066726 38.86184575 -91.57846805 37.54503552 -89.1484375 35.67578125 C-88.25382812 34.98484375 -87.35921875 34.29390625 -86.4375 33.58203125 C-85.45523438 32.82921875 -84.47296875 32.07640625 -83.4609375 31.30078125 C-82.40470703 30.45896359 -81.35005626 29.61516062 -80.296875 28.76953125 C-73.70094558 23.51516358 -67.0254829 19.07172978 -59.4609375 15.30078125 C-58.64109375 14.86121094 -57.82125 14.42164062 -56.9765625 13.96875 C-48.53527574 9.51960045 -39.6521789 6.55862637 -30.30078125 4.6953125 C-28.24312446 4.28944769 -28.24312446 4.28944769 -25.4609375 3.30078125 C-24.4709375 3.79578125 -24.4709375 3.79578125 -23.4609375 4.30078125 C-23.4609375 3.64078125 -23.4609375 2.98078125 -23.4609375 2.30078125 C-15.60055494 0.34320694 -8.07681585 -0.00612778 0 0 Z M-9.4609375 3.30078125 C-11.20015077 3.69314137 -12.95035359 4.03896666 -14.70703125 4.34375 C-25.25310956 6.28116816 -34.71124159 8.12922918 -44.1171875 13.42578125 C-47.26332812 15.18997225 -50.42112253 16.67198885 -53.71191406 18.13452148 C-83.38435419 31.41688107 -107.58520796 55.47150039 -123.48828125 83.58154297 C-124.38309928 85.16319673 -125.29617637 86.73448369 -126.2109375 88.3046875 C-129.69760199 94.43250035 -132.25457734 100.61213085 -134.4609375 107.30078125 C-134.72648437 108.09613281 -134.99203125 108.89148438 -135.265625 109.7109375 C-135.76121607 111.2002653 -136.25229287 112.69110485 -136.73828125 114.18359375 C-137.65310031 116.86376635 -138.71208792 119.47689596 -139.8125 122.0859375 C-141.57797704 128.1162115 -141.61117908 134.44875147 -141.59375 140.68359375 C-141.59470673 141.4603244 -141.59566345 142.23705505 -141.59664917 143.037323 C-141.59732543 144.67266929 -141.59551006 146.30801834 -141.59130859 147.94335938 C-141.58599652 150.39850168 -141.59124983 152.85345737 -141.59765625 155.30859375 C-141.61094017 169.33349353 -141.61094017 169.33349353 -140.4609375 183.30078125 C-140.1309375 183.63078125 -139.8009375 183.96078125 -139.4609375 184.30078125 C-138.98190374 186.38799976 -138.50797895 188.47651036 -138.05859375 190.5703125 C-137.41927622 193.49111612 -136.73372447 196.39641412 -136.0234375 199.30078125 C-135.79785156 200.22890625 -135.57226562 201.15703125 -135.33984375 202.11328125 C-133.05879386 210.38588884 -129.96774435 217.55028125 -125.7734375 225.05078125 C-125.2381543 226.01725586 -124.70287109 226.98373047 -124.15136719 227.97949219 C-114.52891594 245.25130036 -103.61776371 262.77532028 -87.9609375 275.30078125 C-85.4609375 277.30078125 -85.4609375 277.30078125 -83.3359375 279.61328125 C-62.11988086 299.44568202 -28.79698762 309.67927838 -0.4609375 311.30078125 C0.38210937 311.35137695 1.22515625 311.40197266 2.09375 311.45410156 C32.62869638 313.0099511 59.82739815 304.95026171 86.66748047 291.24414062 C88.23887737 290.45208771 89.82671562 289.69277136 91.41796875 288.94140625 C109.1352783 280.17742412 128.49379854 262.52456474 138.9609375 245.8046875 C140.5390625 243.30078125 140.5390625 243.30078125 142.7421875 240.453125 C149.18752129 231.95858491 153.17982955 222.60190473 157.0390625 212.73828125 C157.43114395 211.75427841 157.43114395 211.75427841 157.83114624 210.75039673 C161.06563838 202.56604508 163.23642621 194.79721956 164.19726562 186.01586914 C164.5390625 183.30078125 164.5390625 183.30078125 165.5390625 181.30078125 C168.54832882 156.22356188 164.37319031 131.36821265 157.38232422 107.31152344 C156.51402156 104.21137626 155.75905433 101.09706858 155.015625 97.96484375 C151.99675869 85.7557827 145.29351076 76.06047145 137.5390625 66.30078125 C136.70900221 65.20818109 135.88224001 64.11306841 135.05859375 63.015625 C126.85534129 52.10718027 118.35407562 42.69026372 107.5390625 34.30078125 C106.44724925 33.43182752 105.3561232 32.56200975 104.265625 31.69140625 C103.14912194 30.81032989 102.03194668 29.93010461 100.9140625 29.05078125 C99.91117188 28.261875 98.90828125 27.47296875 97.875 26.66015625 C91.01755424 21.60098804 83.12898849 17.98263582 75.4765625 14.30078125 C74.57131836 13.86507812 73.66607422 13.429375 72.73339844 12.98046875 C66.37645185 9.99317342 60.0265022 7.58935577 53.24975586 5.74609375 C51.66578716 5.31161467 50.09979215 4.81249589 48.5390625 4.30078125 C48.2090625 3.64078125 47.8790625 2.98078125 47.5390625 2.30078125 C46.46978516 2.31818359 46.46978516 2.31818359 45.37890625 2.3359375 C44.42113281 2.34496094 43.46335937 2.35398437 42.4765625 2.36328125 C41.53683594 2.37488281 40.59710938 2.38648437 39.62890625 2.3984375 C36.5390625 2.30078125 36.5390625 2.30078125 33.3425293 1.80517578 C29.40624553 1.2831678 25.55556129 1.13918457 21.59375 1.1328125 C20.86084747 1.1294841 20.12794495 1.1261557 19.37283325 1.12272644 C17.83498761 1.11769692 16.2971312 1.11531687 14.75927734 1.11547852 C12.41355537 1.11328077 10.06829598 1.09505273 7.72265625 1.07617188 C6.22135576 1.0732393 4.72005306 1.07125359 3.21875 1.0703125 C2.52280731 1.06312698 1.82686462 1.05594147 1.10983276 1.04853821 C-2.9092629 1.06733801 -5.81373138 1.66850766 -9.4609375 3.30078125 Z " fill="#0045A2" transform="translate(237.4609375,91.69921875)"/>
<path d="M0 0 C5.74178149 2.56052418 9.97365392 7.0916672 12.6640625 12.73046875 C14.56437822 18.50051829 14.48665745 24.99855246 12.0234375 30.58984375 C8.9716867 35.86796079 4.31070968 39.65281059 -0.8515625 42.77734375 C-7.66624082 44.23763196 -13.60744618 44.03822564 -19.7265625 40.546875 C-24.81557542 37.03681921 -29.25876647 32.49406299 -30.4765625 26.33984375 C-31.01105209 19.62788797 -30.88730853 14.22044035 -27.4765625 8.33984375 C-25.1640625 5.65234375 -25.1640625 5.65234375 -22.4765625 3.33984375 C-21.6721875 2.57671875 -20.8678125 1.81359375 -20.0390625 1.02734375 C-13.82338382 -1.9169251 -6.62150985 -1.76503969 0 0 Z " fill="#0049AB" transform="translate(422.4765625,64.66015625)"/>
<path d="M0 0 C2.44423213 2.20683483 3.77256486 4.2517709 5.12109375 7.24609375 C5.49943359 8.08462891 5.87777344 8.92316406 6.26757812 9.78710938 C6.65365234 10.66173828 7.03972656 11.53636719 7.4375 12.4375 C7.81970703 13.27732422 8.20191406 14.11714844 8.59570312 14.98242188 C13.31203783 25.54412896 16.55289649 35.98946414 18.25 47.4375 C18.50257568 49.12540649 18.50257568 49.12540649 18.76025391 50.84741211 C21.47790725 70.34320185 21.22931479 91.16073624 15 110 C14.80422363 110.61278809 14.60844727 111.22557617 14.40673828 111.85693359 C1.58637681 151.71799763 -22.83729773 180.74005568 -60 200 C-68.66035794 204.31447095 -77.52361715 206.5475643 -86.92773438 208.55029297 C-88.84829494 208.96707814 -90.7606007 209.42142038 -92.671875 209.87890625 C-101.11959195 211.85704811 -109.33456667 212.71992233 -118 213 C-118.72268066 213.02723145 -119.44536133 213.05446289 -120.18994141 213.08251953 C-129.28987179 213.39414756 -137.60123354 213.05724047 -146.49609375 210.8515625 C-149.69579537 210.07393156 -152.86792719 209.47239232 -156.1105957 208.91967773 C-177.77763417 205.1934667 -195.76833743 193.4817807 -211.4609375 178.41796875 C-213.48015043 176.49505674 -215.51087901 174.73433956 -217.6875 173 C-222.46630662 168.96353227 -226.13426475 163.88232998 -230 159 C-230.68320313 158.18273437 -231.36640625 157.36546875 -232.0703125 156.5234375 C-250.1926596 134.70555295 -264.79138753 103.53250135 -262.84228516 74.6640625 C-262.39021595 70.08360865 -261.73969569 65.54209832 -261 61 C-260.67 61 -260.34 61 -260 61 C-260.02094727 61.68288086 -260.04189453 62.36576172 -260.06347656 63.06933594 C-260.81822583 91.58739367 -256.45255691 119.18974247 -237.65844727 141.96850586 C-235.07612615 145.13168767 -232.8828993 148.53966988 -230.625 151.9375 C-226.22644691 158.44550111 -221.5076658 164.37802415 -216 170 C-215.19691406 170.82371094 -214.39382812 171.64742187 -213.56640625 172.49609375 C-200.78770769 184.96359113 -184.00067905 198.24891572 -166.03515625 201.33203125 C-162.44795001 202.12149363 -159.37025386 203.54573728 -156 205 C-131.94917112 212.36803057 -104.80423522 210.03757039 -80.875 202.8359375 C-78 202 -78 202 -74 202 C-74 201.34 -74 200.68 -74 200 C-73.17761841 199.69147095 -73.17761841 199.69147095 -72.33862305 199.37670898 C-61.93305512 195.43872939 -52.03887777 191.61520392 -43 185 C-42.10023438 184.38125 -41.20046875 183.7625 -40.2734375 183.125 C-26.00081666 172.96874151 -13.28336373 160.89736261 -4 146 C-3.30777344 144.92878906 -2.61554688 143.85757813 -1.90234375 142.75390625 C18.18919802 109.88739573 20.97924072 72.08567739 13 35 C10.55911348 25.46388797 6.54957684 16.52570454 2.18432617 7.72949219 C0.80445988 4.92998951 0 3.17104463 0 0 Z " fill="#0044A0" transform="translate(371,178)"/>
<path d="M0 0 C0.33 0 0.66 0 1 0 C1 22.77 1 45.54 1 69 C-21.11 69 -43.22 69 -66 69 C-66 68.67 -66 68.34 -66 68 C-65.2471875 67.86464844 -64.494375 67.72929687 -63.71875 67.58984375 C-48.96552859 64.5998098 -36.45838841 58.82638407 -25 49 C-24.27425781 48.38640625 -23.54851562 47.7728125 -22.80078125 47.140625 C-9.24551168 34.67723372 -3.25459655 17.64890976 0 0 Z " fill="#FCFCFC" transform="translate(499,431)"/>
<path d="M0 0 C22.77 0 45.54 0 69 0 C69 22.44 69 44.88 69 68 C68.67 68 68.34 68 68 68 C67.84144531 67.12859375 67.68289063 66.2571875 67.51953125 65.359375 C63.4828948 44.75245743 53.56367156 27.79546217 36.80859375 14.8828125 C31.49517861 11.32082906 25.81347664 8.62724425 20 6 C19.2575 5.6596875 18.515 5.319375 17.75 4.96875 C12.07768542 2.60528559 6.0519507 1.85735968 0 1 C0 0.67 0 0.34 0 0 Z " fill="#FCFCFC" transform="translate(431,0)"/>
<path d="M0 0 C0.33 0 0.66 0 1 0 C1.1959375 0.969375 1.391875 1.93875 1.59375 2.9375 C4.66436971 17.07659122 10.16866265 30.17921328 20 41 C20.65355469 41.74507813 21.30710937 42.49015625 21.98046875 43.2578125 C29.9497269 51.82222472 40.10320583 57.8507586 51 62 C52.12341797 62.42925781 52.12341797 62.42925781 53.26953125 62.8671875 C58.18776901 64.62669334 62.8000927 65.52728115 68 66 C68 66.33 68 66.66 68 67 C45.56 67 23.12 67 0 67 C0 44.89 0 22.78 0 0 Z " fill="#FCFCFC" transform="translate(0,433)"/>
<path d="M0 0 C22.44 0 44.88 0 68 0 C68 0.33 68 0.66 68 1 C67.12859375 1.15855469 66.2571875 1.31710938 65.359375 1.48046875 C45.09115521 5.45075856 26.89728733 15.10312396 14.71875 32.203125 C7.83920387 43.03584316 3.46265922 53.40640123 1 66 C0.67 66 0.34 66 0 66 C0 44.22 0 22.44 0 0 Z " fill="#FCFCFC" transform="translate(0,0)"/>
<path d="M0 0 C0.66 0.33 1.32 0.66 2 1 C0.37660195 2.70884005 -1.29319053 4.37446717 -3 6 C-3.66 6 -4.32 6 -5 6 C-5.763125 6.969375 -6.52625 7.93875 -7.3125 8.9375 C-9.21372436 11.34232248 -9.76817935 11.92787802 -12.8125 12.875 C-13.8953125 12.936875 -13.8953125 12.936875 -15 13 C-15.33 13.99 -15.66 14.98 -16 16 C-16.66 16 -17.32 16 -18 16 C-18.33 16.99 -18.66 17.98 -19 19 C-19.66 18.67 -20.32 18.34 -21 18 C-21.2475 18.6909375 -21.495 19.381875 -21.75 20.09375 C-23.70818188 24.64652288 -26.4720505 28.66925593 -29.125 32.84375 C-30.72432787 35.53595191 -31.94738832 38.06145906 -33 41 C-33.66 41 -34.32 41 -35 41 C-35.04898438 41.66386719 -35.09796875 42.32773438 -35.1484375 43.01171875 C-35.22320312 43.89472656 -35.29796875 44.77773437 -35.375 45.6875 C-35.44460937 46.55761719 -35.51421875 47.42773438 -35.5859375 48.32421875 C-36 51 -36 51 -36.98046875 53.33984375 C-42.4738827 67.67323417 -38.15223708 87.20120357 -32.51171875 100.8828125 C-29.54168456 107.00706905 -25.90042449 112.27459067 -21 117 C-20.73316406 117.60714844 -20.46632812 118.21429688 -20.19140625 118.83984375 C-13.63055186 130.73542564 5.43567839 139.2935167 18 143 C23.20153594 143.84304202 28.36511552 144.18616562 33.625 144.4375 C34.98578575 144.52634576 36.3464653 144.61683384 37.70703125 144.70898438 C44.73599971 145.47209296 44.73599971 145.47209296 51 143 C53.04296875 142.8046875 53.04296875 142.8046875 55.1875 142.875 C56.445625 142.91625 57.70375 142.9575 59 143 C59 142.34 59 141.68 59 141 C59.66386719 140.82984375 60.32773437 140.6596875 61.01171875 140.484375 C66.26519601 139.04254475 69.87914667 137.67535567 74 134 C75.03125 133.484375 76.0625 132.96875 77.125 132.4375 C83.83887117 128.73380403 90.13114616 122.06659035 94.20703125 115.6484375 C94.79871094 114.77445312 95.39039063 113.90046875 96 113 C96.66 113 97.32 113 98 113 C98.27199219 112.30261719 98.54398438 111.60523438 98.82421875 110.88671875 C99.61929875 108.93467849 100.45674465 106.99944794 101.33203125 105.08203125 C104.78481329 97.45675799 107.32372453 89.90593156 109.35083008 81.77856445 C109.84657009 79.83778153 110.41685919 77.91633591 111 76 C111.66 75.67 112.32 75.34 113 75 C114.52887698 90.79839541 106.33763079 107.6576925 96.76953125 119.83984375 C94.59578491 122.32786667 92.35028809 124.67903814 90 127 C89.41089844 127.61101562 88.82179688 128.22203125 88.21484375 128.8515625 C73.41127132 143.10203442 52.53750367 149.5070797 32.40625 149.1953125 C26.6875683 148.86740644 20.93521211 148.24758604 15.62890625 145.9921875 C12.93090215 144.85566022 12.93090215 144.85566022 9.6015625 144.58203125 C5.59756412 143.93496427 2.90723331 142.65594028 -0.625 140.6875 C-1.71039063 140.09324219 -2.79578125 139.49898437 -3.9140625 138.88671875 C-6.83095563 137.10335244 -9.38694536 135.19793726 -12 133 C-12.63421875 132.48179687 -13.2684375 131.96359375 -13.921875 131.4296875 C-20.90043052 125.49493302 -27.44553841 119.00011446 -32 111 C-32.97646484 109.41251953 -32.97646484 109.41251953 -33.97265625 107.79296875 C-39.3440045 98.71234983 -41.65751477 90.65436433 -42 80 C-42.03029297 79.08524902 -42.06058594 78.17049805 -42.09179688 77.22802734 C-42.17315757 74.21420877 -42.22086247 71.20226333 -42.25 68.1875 C-42.25966797 67.24519531 -42.26933594 66.30289063 -42.27929688 65.33203125 C-42.23193478 55.67016305 -41.03009609 46.74137277 -36.5 38.125 C-35.98638916 37.12243164 -35.98638916 37.12243164 -35.46240234 36.09960938 C-31.79173851 29.19359004 -27.30205883 22.75539471 -22 17 C-21.34 17 -20.68 17 -20 17 C-19.67 16.01 -19.34 15.02 -19 14 C-15.94106142 10.60117935 -12.92735527 8.29095724 -9 6 C-8.67 5.34 -8.34 4.68 -8 4 C-6.22265625 2.89453125 -6.22265625 2.89453125 -4.0625 1.8125 C-3.35222656 1.44769531 -2.64195312 1.08289063 -1.91015625 0.70703125 C-1.27980469 0.47371094 -0.64945313 0.24039063 0 0 Z " fill="#00439E" transform="translate(214,180)"/>
<path d="M0 0 C0.66 0.66 1.32 1.32 2 2 C2.97066406 2.21269531 2.97066406 2.21269531 3.9609375 2.4296875 C7.13923671 3.31863709 8.12271058 5.3807541 9.90625 8.0234375 C11.47760553 10.86310142 12.15975078 13.87907432 13 17 C14.4579186 18.79385992 14.4579186 18.79385992 16 20 C18.04826849 24.09653698 17.56334023 28.99097943 16.3515625 33.3125 C13.20231631 41.06449062 8.04610643 47.90522049 0.23828125 51.31640625 C-6.73087483 53.44485706 -13.19916386 53.56920476 -20 51 C-20 50.34 -20 49.68 -20 49 C-21.485 48.505 -21.485 48.505 -23 48 C-23 47.34 -23 46.68 -23 46 C-23.763125 45.9175 -24.52625 45.835 -25.3125 45.75 C-28 45 -28 45 -29.6875 43.375 C-31.35354955 40.36024368 -32.16718343 37.33126629 -33 34 C-33.99 34.495 -33.99 34.495 -35 35 C-35 34.01 -35 33.02 -35 32 C-35.66 32 -36.32 32 -37 32 C-37.0814222 29.77144426 -37.13938079 27.54202345 -37.1875 25.3125 C-37.22230469 24.07113281 -37.25710938 22.82976562 -37.29296875 21.55078125 C-36.98109439 17.77086395 -36.13959124 16.05966992 -34 13 C-33.7525 12.195625 -33.505 11.39125 -33.25 10.5625 C-30.41771067 4.75630687 -25.36483447 1.90800984 -19.5 -0.375 C-12.44848574 -2.68697189 -7.026721 -2.48001918 0 0 Z M-28.3984375 11.59375 C-32.63919961 17.48871009 -32.54595998 24.00178565 -32 31 C-30.41187259 37.71515291 -25.62683081 42.30739228 -20 46 C-15.27315295 48.64147335 -10.26613952 48.62807169 -5 48 C1.63116631 46.12235793 6.15640753 41.57840312 10 36 C12.79622318 30.22113877 13.11482533 23.89855087 11.34765625 17.71875 C8.73216449 11.881601 4.41836428 7.68306561 -1.30078125 4.8671875 C-11.60308015 1.5573317 -21.26389762 3.46276601 -28.3984375 11.59375 Z " fill="#000B1B" transform="translate(424,60)"/>
<path d="M0 0 C3.06404867 2.40746681 4.42155274 4.74822856 5.75 8.3125 C12.74010797 26.74587352 24.2872991 42.99387469 38 57 C38.87269531 57.92296875 39.74539062 58.8459375 40.64453125 59.796875 C57.99744085 77.78495699 77.33087589 87.43915106 101 95 C101.74991211 95.24298828 102.49982422 95.48597656 103.27246094 95.73632812 C114.53689333 99.20310337 125.9359929 99.35648398 137.625 99.375 C138.72429337 99.37826294 138.72429337 99.37826294 139.84579468 99.3815918 C165.53237652 99.37296309 190.55768674 94.7167129 213.5 82.6875 C214.655 82.130625 215.81 81.57375 217 81 C217.66 81.33 218.32 81.66 219 82 C188.01127259 102.28165881 146.77769042 108.35163095 110.37451172 101.5625 C99.96643528 99.29949034 90.5355768 95.67761746 81 91 C79.41982239 90.32588753 77.83697699 89.65794598 76.25 89 C58.74538548 81.1279058 43.2431392 68.69176704 31 54 C29.97953067 52.83301493 28.95870691 51.66633968 27.9375 50.5 C17.94347958 38.76099188 0 16.36809543 0 0 Z " fill="#00429B" transform="translate(108,293)"/>
<path d="M0 0 C5.5323661 0.53539027 9.95839056 2.8855775 14.875 5.375 C14.875 6.035 14.875 6.695 14.875 7.375 C14.00875 7.045 13.1425 6.715 12.25 6.375 C5.51235782 4.51256232 -2.39310988 3.81874457 -8.92578125 6.54296875 C-13.66542079 9.5605134 -17.01564099 12.6903433 -18.671875 18.19140625 C-20.14634346 25.29681892 -19.77095686 32.08886749 -16.125 38.375 C-12.04742179 43.38459609 -7.05603328 46.8281793 -0.59765625 47.7265625 C4.73741701 47.90306116 8.1817553 47.0736157 12.875 44.375 C13.865 44.87 13.865 44.87 14.875 45.375 C9.32403405 49.94638372 4.83420246 50.91847788 -2.29296875 50.84375 C-5.51689767 50.31013418 -7.4102646 49.15191771 -10.125 47.375 C-11.919375 46.75625 -11.919375 46.75625 -13.75 46.125 C-18.06653395 43.88679721 -18.66668352 41.91198461 -20.125 37.375 C-20.62 35.89 -20.62 35.89 -21.125 34.375 C-22.115 34.87 -22.115 34.87 -23.125 35.375 C-23.125 34.385 -23.125 33.395 -23.125 32.375 C-23.785 32.375 -24.445 32.375 -25.125 32.375 C-25.85996636 26.15954378 -26.44975525 20.65924877 -23.2265625 15.1015625 C-20.96933564 12.37681939 -18.65645558 9.84524595 -16.125 7.375 C-15.58230469 6.81425781 -15.03960937 6.25351563 -14.48046875 5.67578125 C-10.14956729 1.51961356 -5.73698856 0.68843863 0 0 Z " fill="#000F23" transform="translate(412.125,59.625)"/>
<path d="M0 0 C2.44423213 2.20683483 3.77256486 4.2517709 5.12109375 7.24609375 C5.49943359 8.08462891 5.87777344 8.92316406 6.26757812 9.78710938 C6.84668945 11.09905273 6.84668945 11.09905273 7.4375 12.4375 C7.81970703 13.27732422 8.20191406 14.11714844 8.59570312 14.98242188 C13.31203783 25.54412896 16.55289649 35.98946414 18.25 47.4375 C18.50257568 49.12540649 18.50257568 49.12540649 18.76025391 50.84741211 C21.47790725 70.34320185 21.22931479 91.16073624 15 110 C14.70633545 110.91918213 14.70633545 110.91918213 14.40673828 111.85693359 C9.29681294 127.74471195 2.0198606 141.99042928 -7 156 C-7.66 155.67 -8.32 155.34 -9 155 C-7.91730639 151.85034585 -6.51844051 149.11584782 -4.75 146.3125 C-4.30785156 145.61125 -3.86570312 144.91 -3.41015625 144.1875 C-2.50147051 142.77790439 -1.57305049 141.38074179 -0.62109375 140 C19.07652717 109.94368469 20.1472878 72.16902357 13.64599609 38.00244141 C11.34987981 27.33062054 7.01965833 17.47294374 2.18432617 7.72949219 C0.80445988 4.92998951 0 3.17104463 0 0 Z " fill="#004097" transform="translate(371,178)"/>
<path d="M0 0 C3.02561682 4.53842523 2.17806753 8.65797402 2 14 C1.99129883 14.66064453 1.98259766 15.32128906 1.97363281 16.00195312 C1.80231873 28.93911974 -0.37201483 41.00007341 -3.41845703 53.55517578 C-3.88985946 55.53696584 -4.31023775 57.5308453 -4.71484375 59.52734375 C-7.18515129 71.29763261 -12.90078533 82.92927788 -20.125 92.5078125 C-21.49842388 94.33332174 -22.80192627 96.21200221 -24.0625 98.1171875 C-28.92752886 105.43899264 -34.41035762 111.77793191 -40.625 118 C-41.32931152 118.70584229 -42.03362305 119.41168457 -42.75927734 120.13891602 C-47.22980025 124.51606394 -51.89540458 128.38346007 -57 132 C-57.66 131.67 -58.32 131.34 -59 131 C-58.59273682 130.62302979 -58.18547363 130.24605957 -57.76586914 129.85766602 C-53.77644292 126.1608765 -49.80361693 122.44702872 -45.84130859 118.72119141 C-44.39250664 117.3669016 -42.92765356 116.02978179 -41.45703125 114.69921875 C-25.48628118 99.74724073 -14.49406706 79.64345799 -8 59 C-7.42958984 57.25589844 -7.42958984 57.25589844 -6.84765625 55.4765625 C-1.23125003 37.29212274 -0.40082734 18.91417849 0 0 Z " fill="#004198" transform="translate(395,236)"/>
<path d="M0 0 C0.66 0.33 1.32 0.66 2 1 C0.38113585 2.67262717 -1.2452729 4.33795537 -2.875 6 C-4.23238281 7.3921875 -4.23238281 7.3921875 -5.6171875 8.8125 C-8 11 -8 11 -10 11 C-10.23847656 11.54527344 -10.47695312 12.09054688 -10.72265625 12.65234375 C-12.32012637 15.58836682 -14.32530743 17.97041728 -16.4375 20.5625 C-22.46481695 28.16559335 -27.09549835 36.49030553 -31.82373047 44.93701172 C-33.24272447 47.42569982 -34.7694426 49.83670657 -36.3125 52.25 C-42.84092796 63.13700269 -45.92209891 74.58327394 -48 87 C-48.15903809 87.80993408 -48.31807617 88.61986816 -48.48193359 89.4543457 C-49.85387091 96.51338995 -50.5895397 103.52023226 -51.125 110.6875 C-51.25455078 112.33008789 -51.25455078 112.33008789 -51.38671875 114.00585938 C-51.59614499 116.67022655 -51.80049251 119.33487497 -52 122 C-52.33 122 -52.66 122 -53 122 C-53.06453714 114.99920928 -53.05697111 108.00082194 -53 101 C-52.99613281 99.83984375 -52.99226563 98.6796875 -52.98828125 97.484375 C-52.03414971 72.87436157 -39.90975391 48.79186822 -26 29 C-25.15484684 27.7748093 -24.30979807 26.54954659 -23.46484375 25.32421875 C-16.58894014 15.44334821 -9.8010378 7.11186416 0 0 Z " fill="#00429A" transform="translate(154,137)"/>
<path d="M0 0 C0.66 0.33 1.32 0.66 2 1 C0.37660195 2.70884005 -1.29319053 4.37446717 -3 6 C-3.66 6 -4.32 6 -5 6 C-5.763125 6.969375 -6.52625 7.93875 -7.3125 8.9375 C-9.21372436 11.34232248 -9.76817935 11.92787802 -12.8125 12.875 C-13.8953125 12.936875 -13.8953125 12.936875 -15 13 C-15.33 13.99 -15.66 14.98 -16 16 C-16.66 16 -17.32 16 -18 16 C-18.33 16.99 -18.66 17.98 -19 19 C-19.66 18.67 -20.32 18.34 -21 18 C-21.2475 18.6909375 -21.495 19.381875 -21.75 20.09375 C-23.70818188 24.64652288 -26.4720505 28.66925593 -29.125 32.84375 C-30.72432787 35.53595191 -31.94738832 38.06145906 -33 41 C-33.66 41 -34.32 41 -35 41 C-35.04898438 41.66386719 -35.09796875 42.32773438 -35.1484375 43.01171875 C-35.55170345 47.77442869 -36.18253693 51.56993377 -38 56 C-38.45768345 58.99019855 -38.75046652 61.98589829 -39 65 C-41.03458419 62.75347995 -41.95536905 61.46304607 -42.25 58.40625 C-40.91054666 42.83510495 -32.61741696 28.34578857 -22 17 C-21.34 17 -20.68 17 -20 17 C-19.67 16.01 -19.34 15.02 -19 14 C-15.94106142 10.60117935 -12.92735527 8.29095724 -9 6 C-8.67 5.34 -8.34 4.68 -8 4 C-6.22265625 2.89453125 -6.22265625 2.89453125 -4.0625 1.8125 C-3.35222656 1.44769531 -2.64195312 1.08289063 -1.91015625 0.70703125 C-1.27980469 0.47371094 -0.64945313 0.24039063 0 0 Z " fill="#00439D" transform="translate(214,180)"/>
<path d="M0 0 C0.33 0 0.66 0 1 0 C0.97905273 0.68288086 0.95810547 1.36576172 0.93652344 2.06933594 C0.22050953 29.1237855 4.84154358 47.76315226 17 72 C15.515 72.495 15.515 72.495 14 73 C2.20121538 48.70427782 -4.41800961 27.12876976 0 0 Z " fill="#004198" transform="translate(110,239)"/>
<path d="M0 0 C3.0941876 3.6522904 3.52782709 5.89168649 3.34375 10.5703125 C2.2360966 18.39940814 -2.23112395 24.77491145 -8 30 C-13.69544993 34.1750544 -20.03890392 35.13426446 -27 35 C-29.51944262 34.55975138 -31.59521702 33.90847357 -34 33 C-34 32.34 -34 31.68 -34 31 C-34.99 30.67 -35.98 30.34 -37 30 C-36.67 29.34 -36.34 28.68 -36 28 C-35.29488281 28.4846875 -34.58976562 28.969375 -33.86328125 29.46875 C-29.06991073 32.03218962 -24.29784611 31.76272493 -19 31 C-16.64357437 29.9378954 -14.76215268 28.76428857 -12.71875 27.19140625 C-10.82021127 25.87537372 -9.21915533 25.5524868 -7 25 C-5.96854629 23.69084721 -4.96457834 22.35917857 -4 21 C-3.34 21 -2.68 21 -2 21 C-1.855625 20.401875 -1.71125 19.80375 -1.5625 19.1875 C-1.1127561 17.43849596 -0.57107659 15.71322977 0 14 C0.06970052 11.60509014 0.08448003 9.20832309 0.0625 6.8125 C0.05347656 5.54019531 0.04445313 4.26789063 0.03515625 2.95703125 C0.02355469 1.98121094 0.01195312 1.00539063 0 0 Z " fill="#000B1A" transform="translate(438,78)"/>
<path d="M0 0 C0 0.33 0 0.66 0 1 C-6.16788207 1.74924381 -12.17962581 2.04379713 -18.390625 1.96484375 C-20.77874926 1.99701908 -23.01592372 2.21218604 -25.375 2.5625 C-28.65725291 2.95863397 -30.8520086 2.88537258 -34 2 C-34 2.99 -34 3.98 -34 5 C-36.90546809 6.23262282 -39.69111335 7.18429689 -42.75 8 C-44.35875 8.495 -44.35875 8.495 -46 9 C-46.33 9.66 -46.66 10.32 -47 11 C-47.99 10.67 -48.98 10.34 -50 10 C-49.34 9.34 -48.68 8.68 -48 8 C-48 7.01 -48 6.02 -48 5 C-46.948125 4.72736328 -46.948125 4.72736328 -45.875 4.44921875 C-40.09791486 2.91860516 -34.57256012 1.15081268 -29 -1 C-19.66804419 -3.79388494 -9.37016616 -1.53205637 0 0 Z " fill="#004096" transform="translate(265,173)"/>
<path d="M0 0 C1.28794796 2.57589592 0.99379109 4.3167154 0.875 7.1875 C0.83213511 13.74582805 1.97492218 17.51204724 6.1875 22.6875 C12.04501194 27.50367648 17.00023294 29.62672217 24.6640625 29.34375 C27.81688783 28.87978908 30.25805379 27.57661907 33 26 C33.66 26.33 34.32 26.66 35 27 C29.44903405 31.57138372 24.95920246 32.54347788 17.83203125 32.46875 C14.60810233 31.93513418 12.7147354 30.77691771 10 29 C8.80375 28.5875 7.6075 28.175 6.375 27.75 C2.04253588 25.50353712 1.51257273 23.53771819 0 19 C-0.34933594 18.40316406 -0.69867188 17.80632812 -1.05859375 17.19140625 C-2.34764691 14.19074724 -2.26468619 11.62799196 -2.25 8.375 C-2.25515625 7.22773437 -2.2603125 6.08046875 -2.265625 4.8984375 C-2 2 -2 2 0 0 Z " fill="#00183A" transform="translate(392,78)"/>
<path d="M0 0 C0 3 0 3 -1.25 4.47265625 C-2.11625 5.25962891 -2.11625 5.25962891 -3 6.0625 C-6.73427219 9.62290931 -9.86343175 13.48653169 -13.0078125 17.5703125 C-15 20 -15 20 -17.34765625 22.12890625 C-21.14633964 26.24088311 -23.61468339 30.9315171 -26.3125 35.8125 C-26.86228516 36.79154297 -27.41207031 37.77058594 -27.97851562 38.77929688 C-29.32646388 41.18216116 -30.66664953 43.58901447 -32 46 C-33 43 -33 43 -32.15478516 40.90625 C-31.70409668 40.1121875 -31.2534082 39.318125 -30.7890625 38.5 C-30.29059814 37.61795898 -29.79213379 36.73591797 -29.27856445 35.82714844 C-28.46005005 34.42770996 -28.46005005 34.42770996 -27.625 33 C-27.07352295 32.04899414 -26.5220459 31.09798828 -25.95385742 30.11816406 C-19.30626222 18.8599379 -11.01835551 7.34557034 0 0 Z " fill="#003E93" transform="translate(156,145)"/>
<path d="M0 0 C16.64230418 7.68106347 33.17059534 27.29649136 42 43 C42.66015625 45.2578125 42.66015625 45.2578125 43 47 C40.43558841 44.60759162 38.50912448 41.99396165 36.5 39.125 C27.33733768 26.40189247 17.41057362 15.18086944 4.57421875 6.11328125 C2.14921827 4.12249937 1.07769401 2.89344513 0 0 Z " fill="#003C8D" transform="translate(328,131)"/>
<path d="M0 0 C2.59521528 0.37074504 3.72403114 0.67493694 5.44921875 2.70703125 C6.06216797 3.74923828 6.06216797 3.74923828 6.6875 4.8125 C7.10386719 5.49957031 7.52023437 6.18664062 7.94921875 6.89453125 C11.0600874 13.12783312 10.84613269 20.28346874 8.8125 26.8125 C6.87354257 30.22239064 5.09614602 32.58349579 2 35 C-0.16015625 34.625 -0.16015625 34.625 -2 34 C-1.59007812 33.55269531 -1.18015625 33.10539062 -0.7578125 32.64453125 C-0.21898437 32.03996094 0.31984375 31.43539062 0.875 30.8125 C1.40867187 30.22082031 1.94234375 29.62914063 2.4921875 29.01953125 C6.60257536 23.5141672 6.77869561 17.62818286 6 11 C4.58333078 6.91705239 2.38593291 3.57889937 0 0 Z " fill="#00142F" transform="translate(429,69)"/>
<path d="M0 0 C0.99 0 1.98 0 3 0 C2.67 1.98 2.34 3.96 2 6 C1.34 6 0.68 6 0 6 C-0.04898438 6.66386719 -0.09796875 7.32773438 -0.1484375 8.01171875 C-0.55170345 12.77442869 -1.18253693 16.56993377 -3 21 C-3.45768345 23.99019855 -3.75046652 26.98589829 -4 30 C-6.03458419 27.75347995 -6.95536905 26.46304607 -7.25 23.40625 C-6.50685816 14.76722606 -3.85731023 7.71462045 0 0 Z " fill="#003F93" transform="translate(179,215)"/>
<path d="M0 0 C-2.56847136 1.71231424 -4.02728 2.4258789 -6.88671875 3.2265625 C-21.00220733 7.33720662 -33.51507783 12.96922703 -45.984375 20.7734375 C-47.94484085 21.96643416 -49.93359749 23.00403122 -52 24 C-52 23.34 -52 22.68 -52 22 C-47.18647485 17.9953049 -41.83224941 14.66214485 -36.16015625 12.0234375 C-34.56032203 11.26546903 -32.98809969 10.44861445 -31.43359375 9.6015625 C-25.46820236 6.40378807 -19.53347472 4.04080848 -13.0625 2.125 C-11.97980835 1.80221069 -11.97980835 1.80221069 -10.87524414 1.47290039 C-7.17086944 0.42705602 -3.85338299 -0.25638948 0 0 Z " fill="#003986" transform="translate(220,114)"/>
<path d="M0 0 C0.33 0.66 0.66 1.32 1 2 C0.26630239 3.90094381 -0.47072559 5.80072122 -1.23046875 7.69140625 C-2.46204667 11.38614002 -2.74030909 15.131501 -3 19 C-3.99 19.33 -4.98 19.66 -6 20 C-6.33 20.99 -6.66 21.98 -7 23 C-7.125 16.25 -7.125 16.25 -6 14 C-6.08216301 12.37373897 -6.18963891 10.74869358 -6.3125 9.125 C-6.36328125 6.421875 -6.36328125 6.421875 -6 4 C-3 1.375 -3 1.375 0 0 Z " fill="#003A89" transform="translate(100,206)"/>
<path d="M0 0 C4.13843492 3.49180447 5.90375025 7.5134305 8 12.375 C8.52110352 13.5674231 8.52110352 13.5674231 9.05273438 14.78393555 C16.39949481 31.99472119 16.39949481 31.99472119 16 41 C14.21174245 38.31761368 13.55781283 36.82108495 12.75 33.8125 C9.75294022 23.47415741 5.99460322 13.30445251 0.8828125 3.8203125 C0 2 0 2 0 0 Z " fill="#003C8C" transform="translate(375,170)"/>
<path d="M0 0 C-0.33 1.32 -0.66 2.64 -1 4 C-2.64696604 3.5247412 -4.29254728 3.04468109 -5.9375 2.5625 C-6.85402344 2.29566406 -7.77054687 2.02882813 -8.71484375 1.75390625 C-11 1 -11 1 -12 0 C-13.37419024 -0.0471825 -14.75050532 -0.03727443 -16.125 0 C-20.20774203 0.0522591 -23.97911083 -0.31559333 -28 -1 C-28 -1.33 -28 -1.66 -28 -2 C-18.09930502 -4.08435684 -9.62847089 -2.77935242 0 0 Z " fill="#004095" transform="translate(295,95)"/>
<path d="M0 0 C2.49478644 2.2400434 3.80055861 4.33162607 5.15625 7.38671875 C5.53910156 8.24330078 5.92195313 9.09988281 6.31640625 9.98242188 C6.90228516 11.32143555 6.90228516 11.32143555 7.5 12.6875 C7.89058594 13.56083984 8.28117187 14.43417969 8.68359375 15.33398438 C15 29.57248264 15 29.57248264 15 35 C14.34 35 13.68 35 13 35 C12.47212891 33.42025391 12.47212891 33.42025391 11.93359375 31.80859375 C9.12038689 23.54250888 6.07766362 15.56024511 2.18530273 7.73608398 C0.80767538 4.93378075 0 3.1728708 0 0 Z " fill="#003C8D" transform="translate(371,178)"/>
<path d="M0 0 C5.5323661 0.53539027 9.95839056 2.8855775 14.875 5.375 C14.875 6.035 14.875 6.695 14.875 7.375 C13.91464844 7.05789062 12.95429688 6.74078125 11.96484375 6.4140625 C7.48365075 5.13372164 3.07424466 4.92934226 -1.5625 4.75 C-2.38943359 4.71132812 -3.21636719 4.67265625 -4.06835938 4.6328125 C-6.08691073 4.53946908 -8.10592331 4.45619039 -10.125 4.375 C-8.125 1.375 -8.125 1.375 -5.9375 0.6875 C-3.95729595 0.46747733 -1.97819792 0.23738375 0 0 Z " fill="#001839" transform="translate(412.125,59.625)"/>
<path d="M0 0 C0.33 0 0.66 0 1 0 C1.02906612 4.56248659 1.04682113 9.1249493 1.0625 13.6875 C1.07087891 14.98107422 1.07925781 16.27464844 1.08789062 17.60742188 C1.09111328 18.85458984 1.09433594 20.10175781 1.09765625 21.38671875 C1.10289307 22.53358154 1.10812988 23.68044434 1.11352539 24.86206055 C1.01075807 27.70263777 0.65316416 30.24043792 0 33 C-0.33 33 -0.66 33 -1 33 C-2.03753021 21.67129179 -1.82923424 11.23240531 0 0 Z " fill="#003782" transform="translate(110,239)"/>
<path d="M0 0 C1.28794796 2.57589592 0.99379109 4.3167154 0.875 7.1875 C0.82225149 15.26857236 3.73809414 20.16923945 9 26 C5.58864174 25.7473068 4.78062489 24.76495524 2.375 22.1875 C-1.27674104 17.28647913 -2.27792464 14.56030682 -2.25 8.375 C-2.25515625 7.22773437 -2.2603125 6.08046875 -2.265625 4.8984375 C-2 2 -2 2 0 0 Z " fill="#001C43" transform="translate(392,78)"/>
<path d="M0 0 C0.68964844 0.19335938 1.37929687 0.38671875 2.08984375 0.5859375 C8.03171334 2.23238147 13.96970983 3.71485619 20 5 C19.01 5.495 19.01 5.495 18 6 C18 6.66 18 7.32 18 8 C11.04223041 6.63125844 4.61396893 4.5466871 -2 2 C-1.34 1.34 -0.68 0.68 0 0 Z " fill="#000915" transform="translate(194,381)"/>
<path d="M0 0 C0.66 0.33 1.32 0.66 2 1 C1.5625 2.3125 1.125 3.625 0.6875 4.9375 C0.41550781 5.75605469 0.14351563 6.57460937 -0.13671875 7.41796875 C-0.69553342 9.0893556 -1.26025881 10.75878272 -1.83203125 12.42578125 C-3.14114695 16.2628445 -4.35216933 19.98344987 -5 24 C-5.66 23.67 -6.32 23.34 -7 23 C-6.27457638 14.83898432 -3.03548779 7.54107728 0 0 Z " fill="#003986" transform="translate(112,194)"/>
<path d="M0 0 C6.51428582 0.29543246 10.49724727 1.53530384 16 5 C18.33124929 6.00484883 20.66443537 7.00522247 23 8 C24.68535024 8.96817992 26.36021682 9.95650161 28 11 C27.01 11.495 27.01 11.495 26 12 C24.37510899 11.05214691 22.75307973 10.09893064 21.1484375 9.1171875 C17.92750924 7.44230481 14.54296428 6.61073101 11.0390625 5.7109375 C9 5 9 5 8 3 C6.11235097 2.31527335 6.11235097 2.31527335 3.9375 1.875 C3.20402344 1.70742187 2.47054688 1.53984375 1.71484375 1.3671875 C1.14894531 1.24601563 0.58304687 1.12484375 0 1 C0 0.67 0 0.34 0 0 Z " fill="#00367E" transform="translate(266,174)"/>
<path d="M0 0 C13.6332574 -0.18451025 13.6332574 -0.18451025 20 1 C20 1.33 20 1.66 20 2 C12.88221482 3.12067256 6.97579243 2.7958955 0 1 C0 0.67 0 0.34 0 0 Z " fill="#0047A6" transform="translate(245,172)"/>
<path d="M0 0 C0.66 0 1.32 0 2 0 C1.67 4.29 1.34 8.58 1 13 C0.01 13 -0.98 13 -2 13 C-1.85769192 11.58297487 -1.71099254 10.1663904 -1.5625 8.75 C-1.48128906 7.96109375 -1.40007812 7.1721875 -1.31640625 6.359375 C-1.02365007 4.17635361 -0.57935581 2.1226818 0 0 Z " fill="#004096" transform="translate(104,217)"/>
<path d="M0 0 C0.95892499 2.58909747 1.0552238 3.81592068 0.25 6.5 C-0.95767886 8.91535773 -2.29751274 10.91058382 -4 13 C-5.32 12.67 -6.64 12.34 -8 12 C-7.59007812 11.55269531 -7.18015625 11.10539062 -6.7578125 10.64453125 C-3.74359926 7.26255515 -1.33949455 4.420332 0 0 Z " fill="#001A3D" transform="translate(435,91)"/>
<path d="M0 0 C1 2 1 2 0.0625 5.125 C-0.288125 6.07375 -0.63875 7.0225 -1 8 C-1.99 7.67 -2.98 7.34 -4 7 C-4.66 8.32 -5.32 9.64 -6 11 C-6.375 7.75 -6.375 7.75 -6 4 C-3 1.5625 -3 1.5625 0 0 Z " fill="#00357C" transform="translate(100,206)"/>
<path d="M0 0 C0.66 0.33 1.32 0.66 2 1 C1.54625 1.4125 1.0925 1.825 0.625 2.25 C-1.05950374 4.06408095 -1.99265971 5.75285627 -3 8 C-3.66 8 -4.32 8 -5 8 C-5.33 8.99 -5.66 9.98 -6 11 C-6.66 10.67 -7.32 10.34 -8 10 C-8.33 10.66 -8.66 11.32 -9 12 C-9 11.01 -9 10.02 -9 9 C-8.34 9 -7.68 9 -7 9 C-6.67 8.01 -6.34 7.02 -6 6 C-4.37446717 4.29319053 -2.70884005 2.62339805 -1 1 C-0.67 0.67 -0.34 0.34 0 0 Z " fill="#003D90" transform="translate(201,188)"/>
<path d="M0 0 C3.3 0 6.6 0 10 0 C10 0.66 10 1.32 10 2 C6.7 2.66 3.4 3.32 0 4 C0 2.68 0 1.36 0 0 Z " fill="#0048A9" transform="translate(215,94)"/>
<path d="M0 0 C5.61 0 11.22 0 17 0 C17 0.33 17 0.66 17 1 C13.7 1 10.4 1 7 1 C7 1.66 7 2.32 7 3 C4.0625 2.625 4.0625 2.625 1 2 C0.67 1.34 0.34 0.68 0 0 Z " fill="#003378" transform="translate(236,393)"/>
<path d="M0 0 C0.99 0.33 1.98 0.66 3 1 C2.01 4.3 1.02 7.6 0 11 C-0.99 11 -1.98 11 -3 11 C-2.01 7.37 -1.02 3.74 0 0 Z " fill="#003B8B" transform="translate(387,295)"/>
<path d="M0 0 C6.19339263 1.29029013 10.15289443 3.9964167 15 8 C14.01 8.495 14.01 8.495 13 9 C10.70539919 7.77896564 8.55906377 6.52037408 6.375 5.125 C5.76398438 4.74730469 5.15296875 4.36960937 4.5234375 3.98046875 C2.99375114 3.02100029 1.49395605 2.01420678 0 1 C0 0.67 0 0.34 0 0 Z " fill="#003782" transform="translate(318,117)"/>
<path d="M0 0 C0 0.66 0 1.32 0 2 C-0.9590625 2.433125 -0.9590625 2.433125 -1.9375 2.875 C-4.15206079 3.82823451 -4.15206079 3.82823451 -5 6 C-5.99 5.67 -6.98 5.34 -8 5 C-7.34 4.34 -6.68 3.68 -6 3 C-6 2.01 -6 1.02 -6 0 C-3.50907189 -1.24546405 -2.58919267 -0.7767578 0 0 Z " fill="#003C8E" transform="translate(223,178)"/>
<path d="M0 0 C0 0.99 0 1.98 0 3 C-2.31 3.66 -4.62 4.32 -7 5 C-7.33 4.01 -7.66 3.02 -8 2 C-4.77208445 -0.1519437 -3.71599191 -0.20086443 0 0 Z " fill="#003B8A" transform="translate(203,99)"/>
<path d="M0 0 C0.66 0 1.32 0 2 0 C3.03159626 3.09478879 2.97482862 4.52631393 2.5625 7.6875 C2.46066406 8.49574219 2.35882813 9.30398437 2.25390625 10.13671875 C2.17011719 10.75160156 2.08632812 11.36648437 2 12 C0.4375 10.5 0.4375 10.5 -1 8 C-0.96823234 5.22562457 -0.50364148 2.74713533 0 0 Z " fill="#003071" transform="translate(173,233)"/>
<path d="M0 0 C-0.66 0.66 -1.32 1.32 -2 2 C-4.625 1.625 -4.625 1.625 -7 1 C-7 1.66 -7 2.32 -7 3 C-9.97 2.67 -12.94 2.34 -16 2 C-16 1.67 -16 1.34 -16 1 C-10.63904667 -0.12862175 -5.44693314 -0.09688221 0 0 Z " fill="#003071" transform="translate(283,92)"/>
<path d="M0 0 C-0.33 0.99 -0.66 1.98 -1 3 C-2.65 3.33 -4.3 3.66 -6 4 C-6 3.34 -6 2.68 -6 2 C-6.99 1.67 -7.98 1.34 -9 1 C-6.04335481 -0.4783226 -3.25770263 -0.06032783 0 0 Z " fill="#003781" transform="translate(231,92)"/>
<path d="M0 0 C0.33 0.66 0.66 1.32 1 2 C1.66 2 2.32 2 3 2 C3 3.98 3 5.96 3 8 C1.68 8 0.36 8 -1 8 C-0.67 5.36 -0.34 2.72 0 0 Z " fill="#0049AB" transform="translate(95,211)"/>
<path d="M0 0 C0.763125 0.804375 1.52625 1.60875 2.3125 2.4375 C4.79430898 5.16799024 4.79430898 5.16799024 8 6 C8 6.66 8 7.32 8 8 C4.89347355 7.6641593 3.39585697 7.40950721 1.1875 5.125 C0 3 0 3 0 0 Z " fill="#000F25" transform="translate(393,98)"/>
<path d="M0 0 C0.99 0.33 1.98 0.66 3 1 C2.236875 1.5775 1.47375 2.155 0.6875 2.75 C-1.66200917 4.71703093 -3.29323505 6.48476744 -5 9 C-4.5206753 4.68607774 -3.2542015 2.83430453 0 0 Z " fill="#001C43" transform="translate(399,66)"/>
<path d="M0 0 C4.875 4.75 4.875 4.75 6 7 C5.34 7.66 4.68 8.32 4 9 C0 3.375 0 3.375 0 0 Z " fill="#003B8A" transform="translate(131,334)"/>
</svg>
